ply
format ascii 1.0
comment Generated from Goxel 0.10.8
element vertex 182
property float x
property float y
property float z
property float red
property float green
property float blue
element face 88
property list uchar int vertex_indices
end_header
-2 -3 0 0.270588 0.156863 0.235294
-1 -3 0 0.270588 0.156863 0.235294
-1 -3 1 0.270588 0.156863 0.235294
-2 -3 1 0.270588 0.156863 0.235294
-2 -2 0 0.270588 0.156863 0.235294
-1 -2 0 0.270588 0.156863 0.235294
-1 -2 1 0.270588 0.156863 0.235294
-2 -2 1 0.270588 0.156863 0.235294
0 -3 0 0.270588 0.156863 0.235294
0 -3 1 0.270588 0.156863 0.235294
0 -2 0 0.270588 0.156863 0.235294
0 -2 1 0.270588 0.156863 0.235294
-3 -2 0 0.270588 0.156863 0.235294
-3 -2 1 0.270588 0.156863 0.235294
-3 -1 0 0.270588 0.156863 0.235294
-2 -1 0 0.270588 0.156863 0.235294
-2 -1 1 0.270588 0.156863 0.235294
-3 -1 1 0.270588 0.156863 0.235294
-2 -2 0 0.560784 0.337255 0.231373
-2 -1 0 0.560784 0.337255 0.231373
-1 -1 0 0.560784 0.337255 0.231373
-1 -2 0 0.560784 0.337255 0.231373
-1 -2 1 0.560784 0.337255 0.231373
-1 -1 1 0.560784 0.337255 0.231373
-2 -1 1 0.560784 0.337255 0.231373
-2 -2 1 0.560784 0.337255 0.231373
-1 -2 0 0.400000 0.223529 0.192157
-1 -1 0 0.400000 0.223529 0.192157
0 -1 0 0.400000 0.223529 0.192157
0 -2 0 0.400000 0.223529 0.192157
0 -2 1 0.400000 0.223529 0.192157
0 -1 1 0.400000 0.223529 0.192157
-1 -1 1 0.400000 0.223529 0.192157
-1 -2 1 0.400000 0.223529 0.192157
-3 -1 0 0.400000 0.223529 0.192157
-3 0 0 0.400000 0.223529 0.192157
-2 0 0 0.400000 0.223529 0.192157
-2 -1 0 0.400000 0.223529 0.192157
-2 -1 1 0.400000 0.223529 0.192157
-2 0 1 0.400000 0.223529 0.192157
-3 0 1 0.400000 0.223529 0.192157
-3 -1 1 0.400000 0.223529 0.192157
-2 0 0 0.560784 0.337255 0.231373
-1 0 0 0.560784 0.337255 0.231373
-1 0 1 0.560784 0.337255 0.231373
-2 0 1 0.560784 0.337255 0.231373
-1 -1 0 0.270588 0.156863 0.235294
-1 0 0 0.270588 0.156863 0.235294
0 0 0 0.270588 0.156863 0.235294
0 -1 0 0.270588 0.156863 0.235294
0 -1 1 0.270588 0.156863 0.235294
0 0 1 0.270588 0.156863 0.235294
-1 0 1 0.270588 0.156863 0.235294
-1 -1 1 0.270588 0.156863 0.235294
1 -3 0 0.270588 0.156863 0.235294
1 -3 1 0.270588 0.156863 0.235294
1 -2 0 0.270588 0.156863 0.235294
1 -2 1 0.270588 0.156863 0.235294
1 -3 0 0.400000 0.223529 0.192157
2 -3 0 0.400000 0.223529 0.192157
2 -3 1 0.400000 0.223529 0.192157
1 -3 1 0.400000 0.223529 0.192157
1 -2 0 0.400000 0.223529 0.192157
2 -2 0 0.400000 0.223529 0.192157
2 -2 1 0.400000 0.223529 0.192157
1 -2 1 0.400000 0.223529 0.192157
1 -1 0 0.400000 0.223529 0.192157
1 -1 1 0.400000 0.223529 0.192157
1 -2 0 0.560784 0.337255 0.231373
1 -1 0 0.560784 0.337255 0.231373
2 -1 0 0.560784 0.337255 0.231373
2 -2 0 0.560784 0.337255 0.231373
2 -2 1 0.560784 0.337255 0.231373
2 -1 1 0.560784 0.337255 0.231373
1 -1 1 0.560784 0.337255 0.231373
1 -2 1 0.560784 0.337255 0.231373
2 -2 0 0.270588 0.156863 0.235294
3 -2 0 0.270588 0.156863 0.235294
3 -2 1 0.270588 0.156863 0.235294
2 -2 1 0.270588 0.156863 0.235294
2 -1 0 0.270588 0.156863 0.235294
3 -1 0 0.270588 0.156863 0.235294
3 -1 1 0.270588 0.156863 0.235294
2 -1 1 0.270588 0.156863 0.235294
1 0 0 0.270588 0.156863 0.235294
1 -1 0 0.270588 0.156863 0.235294
1 -1 1 0.270588 0.156863 0.235294
1 0 1 0.270588 0.156863 0.235294
1 0 0 0.400000 0.223529 0.192157
2 0 0 0.400000 0.223529 0.192157
2 -1 0 0.400000 0.223529 0.192157
2 -1 1 0.400000 0.223529 0.192157
2 0 1 0.400000 0.223529 0.192157
1 0 1 0.400000 0.223529 0.192157
2 0 0 0.270588 0.156863 0.235294
3 0 0 0.270588 0.156863 0.235294
3 0 1 0.270588 0.156863 0.235294
2 0 1 0.270588 0.156863 0.235294
0 1 0 0.270588 0.156863 0.235294
1 1 0 0.270588 0.156863 0.235294
1 1 1 0.270588 0.156863 0.235294
0 1 1 0.270588 0.156863 0.235294
1 0 0 0.560784 0.337255 0.231373
1 1 0 0.560784 0.337255 0.231373
2 1 0 0.560784 0.337255 0.231373
2 0 0 0.560784 0.337255 0.231373
2 0 1 0.560784 0.337255 0.231373
2 1 1 0.560784 0.337255 0.231373
1 1 1 0.560784 0.337255 0.231373
1 0 1 0.560784 0.337255 0.231373
2 1 0 0.400000 0.223529 0.192157
3 1 0 0.400000 0.223529 0.192157
3 0 0 0.400000 0.223529 0.192157
3 0 1 0.400000 0.223529 0.192157
3 1 1 0.400000 0.223529 0.192157
2 1 1 0.400000 0.223529 0.192157
0 1 0 0.560784 0.337255 0.231373
0 2 0 0.560784 0.337255 0.231373
1 2 0 0.560784 0.337255 0.231373
1 2 1 0.560784 0.337255 0.231373
0 2 1 0.560784 0.337255 0.231373
0 1 1 0.560784 0.337255 0.231373
2 2 0 0.560784 0.337255 0.231373
2 2 1 0.560784 0.337255 0.231373
3 2 0 0.270588 0.156863 0.235294
2 2 0 0.270588 0.156863 0.235294
2 2 1 0.270588 0.156863 0.235294
3 2 1 0.270588 0.156863 0.235294
2 1 0 0.270588 0.156863 0.235294
3 1 0 0.270588 0.156863 0.235294
3 1 1 0.270588 0.156863 0.235294
2 1 1 0.270588 0.156863 0.235294
1 3 0 0.400000 0.223529 0.192157
0 3 0 0.400000 0.223529 0.192157
0 3 1 0.400000 0.223529 0.192157
1 3 1 0.400000 0.223529 0.192157
0 2 0 0.400000 0.223529 0.192157
1 2 0 0.400000 0.223529 0.192157
1 2 1 0.400000 0.223529 0.192157
0 2 1 0.400000 0.223529 0.192157
2 3 0 0.400000 0.223529 0.192157
2 3 1 0.400000 0.223529 0.192157
2 2 0 0.400000 0.223529 0.192157
2 2 1 0.400000 0.223529 0.192157
-3 1 0 0.400000 0.223529 0.192157
-2 1 0 0.400000 0.223529 0.192157
-2 1 1 0.400000 0.223529 0.192157
-3 1 1 0.400000 0.223529 0.192157
-2 0 0 0.874510 0.443137 0.149020
-2 1 0 0.874510 0.443137 0.149020
-1 1 0 0.874510 0.443137 0.149020
-1 0 0 0.874510 0.443137 0.149020
-1 0 1 0.874510 0.443137 0.149020
-1 1 1 0.874510 0.443137 0.149020
-2 1 1 0.874510 0.443137 0.149020
-2 0 1 0.874510 0.443137 0.149020
-1 1 0 0.270588 0.156863 0.235294
-1 1 1 0.270588 0.156863 0.235294
-2 2 0 0.400000 0.223529 0.192157
-3 2 0 0.400000 0.223529 0.192157
-3 2 1 0.400000 0.223529 0.192157
-2 2 1 0.400000 0.223529 0.192157
-2 1 0 0.560784 0.337255 0.231373
-2 2 0 0.560784 0.337255 0.231373
-1 2 0 0.560784 0.337255 0.231373
-1 1 0 0.560784 0.337255 0.231373
-1 1 1 0.560784 0.337255 0.231373
-1 2 1 0.560784 0.337255 0.231373
-2 2 1 0.560784 0.337255 0.231373
-2 1 1 0.560784 0.337255 0.231373
-1 2 0 0.874510 0.443137 0.149020
0 2 0 0.874510 0.443137 0.149020
0 1 0 0.874510 0.443137 0.149020
0 1 1 0.874510 0.443137 0.149020
0 2 1 0.874510 0.443137 0.149020
-1 2 1 0.874510 0.443137 0.149020
-1 3 0 0.400000 0.223529 0.192157
-2 3 0 0.400000 0.223529 0.192157
-2 3 1 0.400000 0.223529 0.192157
-1 3 1 0.400000 0.223529 0.192157
-1 2 0 0.400000 0.223529 0.192157
-1 2 1 0.400000 0.223529 0.192157
4 0 1 2 3
4 0 4 5 1
4 2 6 7 3
4 0 3 7 4
4 1 8 9 2
4 1 5 10 8
4 9 11 6 2
4 12 4 7 13
4 12 14 15 4
4 7 16 17 13
4 12 13 17 14
4 18 19 20 21
4 22 23 24 25
4 26 27 28 29
4 30 31 32 33
4 34 35 36 37
4 38 39 40 41
4 34 41 40 35
4 19 42 43 20
4 23 44 45 24
4 46 47 48 49
4 50 51 52 53
4 8 54 55 9
4 8 10 56 54
4 55 57 11 9
4 58 59 60 61
4 58 62 63 59
4 60 64 65 61
4 59 63 64 60
4 29 28 66 62
4 65 67 31 30
4 68 69 70 71
4 72 73 74 75
4 76 77 78 79
4 76 80 81 77
4 78 82 83 79
4 77 81 82 78
4 49 48 84 85
4 86 87 51 50
4 66 88 89 90
4 91 92 93 67
4 80 94 95 81
4 82 96 97 83
4 81 95 96 82
4 48 98 99 84
4 87 100 101 51
4 102 103 104 105
4 106 107 108 109
4 89 110 111 112
4 113 114 115 92
4 112 111 114 113
4 116 117 118 103
4 108 119 120 121
4 103 118 122 104
4 107 123 119 108
4 124 125 126 127
4 128 125 124 129
4 130 127 126 131
4 129 124 127 130
4 132 133 134 135
4 136 133 132 137
4 138 135 134 139
4 140 132 135 141
4 137 132 140 142
4 143 141 135 138
4 142 140 141 143
4 35 144 145 36
4 39 146 147 40
4 35 40 147 144
4 148 149 150 151
4 152 153 154 155
4 47 156 98 48
4 51 101 157 52
4 158 159 160 161
4 144 159 158 145
4 146 161 160 147
4 144 147 160 159
4 162 163 164 165
4 166 167 168 169
4 150 170 171 172
4 173 174 175 153
4 176 177 178 179
4 158 177 176 180
4 181 179 178 161
4 158 161 178 177
4 133 176 179 134
4 180 176 133 136
4 139 134 179 181
